<svg width="33" height="37" viewBox="0 0 33 37" fill="none" xmlns="http://www.w3.org/2000/svg">
<path d="M32.75 37L24.2188 29.0833L25.2425 32.25H4.3125C3.23506 32.25 2.20175 31.8329 1.43988 31.0906C0.678012 30.3483 0.25 29.3415 0.25 28.2916V4.54165C0.25 3.49183 0.678012 2.48501 1.43988 1.74268C2.20175 1.00035 3.23506 0.583313 4.3125 0.583313H28.6875C29.7649 0.583313 30.7983 1.00035 31.5601 1.74268C32.322 2.48501 32.75 3.49183 32.75 4.54165V37ZM16.5 9.76665C12.145 9.76665 9.09 11.5875 9.09 11.5875C10.7638 10.1308 13.6888 9.29165 13.6888 9.29165L13.4125 9.02248C10.6663 9.06998 8.18 10.9225 8.18 10.9225C5.385 16.6066 5.56375 21.515 5.56375 21.515C7.83875 24.3808 11.2188 24.175 11.2188 24.175L12.3725 22.75C10.3413 22.3225 9.0575 20.565 9.0575 20.565C9.0575 20.565 12.1125 22.5916 16.5 22.5916C20.8875 22.5916 23.9425 20.565 23.9425 20.565C23.9425 20.565 22.6588 22.3225 20.6275 22.75L21.7812 24.175C21.7812 24.175 25.1612 24.3808 27.4362 21.515C27.4362 21.515 27.615 16.6066 24.82 10.9225C24.82 10.9225 22.3337 9.06998 19.5875 9.02248L19.3112 9.29165C19.3112 9.29165 22.2362 10.1308 23.91 11.5875C23.91 11.5875 20.855 9.76665 16.5 9.76665ZM13.1363 15.7675C14.1925 15.7675 15.0538 16.67 15.0375 17.7783C15.0375 18.8708 14.1925 19.7891 13.1363 19.7891C12.0963 19.7891 11.2513 18.8708 11.2513 17.7783C11.2513 16.67 12.08 15.7675 13.1363 15.7675ZM19.9125 15.7675C20.9688 15.7675 21.8138 16.67 21.8138 17.7783C21.8138 18.8708 20.9688 19.7891 19.9125 19.7891C18.8725 19.7891 18.0275 18.8708 18.0275 17.7783C18.0275 16.67 18.8563 15.7675 19.9125 15.7675Z" fill="#7289DA"/>
</svg>
