<svg width="37" height="35" viewBox="0 0 37 35" fill="none" xmlns="http://www.w3.org/2000/svg">
<path d="M18.5 0.5C16.1472 0.5 13.8174 0.952651 11.6436 1.83211C9.46988 2.71157 7.49476 4.00061 5.83105 5.62563C2.47102 8.90752 0.583374 13.3587 0.583374 18C0.583374 25.735 5.72546 32.2975 12.8384 34.625C13.7342 34.765 14.0209 34.2225 14.0209 33.75V30.7925C9.05796 31.8425 8.00088 28.4475 8.00088 28.4475C7.17671 26.4175 6.01213 25.875 6.01213 25.875C4.38171 24.79 6.13754 24.825 6.13754 24.825C7.92921 24.9475 8.87879 26.6275 8.87879 26.6275C10.4375 29.2875 13.0713 28.5 14.0925 28.08C14.2538 26.9425 14.7196 26.1725 15.2213 25.735C11.2438 25.2975 7.06921 23.7925 7.06921 17.125C7.06921 15.1825 7.75004 13.625 8.91463 12.3825C8.73546 11.945 8.10838 10.125 9.09379 7.7625C9.09379 7.7625 10.5988 7.29 14.0209 9.5475C15.4363 9.1625 16.9771 8.97 18.5 8.97C20.023 8.97 21.5638 9.1625 22.9792 9.5475C26.4013 7.29 27.9063 7.7625 27.9063 7.7625C28.8917 10.125 28.2646 11.945 28.0855 12.3825C29.25 13.625 29.9309 15.1825 29.9309 17.125C29.9309 23.81 25.7384 25.28 21.743 25.7175C22.388 26.26 22.9792 27.3275 22.9792 28.955V33.75C22.9792 34.2225 23.2659 34.7825 24.1796 34.625C31.2926 32.28 36.4167 25.735 36.4167 18C36.4167 15.7019 35.9533 13.4262 35.0529 11.303C34.1525 9.17984 32.8328 7.25066 31.169 5.62563C29.5053 4.00061 27.5302 2.71157 25.3565 1.83211C23.1827 0.952651 20.8529 0.5 18.5 0.5Z" fill="#333333"/>
</svg>
